<svg width="33" height="33" viewBox="0 0 33 33" fill="none" xmlns="http://www.w3.org/2000/svg">
<path d="M21.8334 11.3901C23.9551 11.3901 25.9899 12.233 27.4902 13.7333C28.9905 15.2336 29.8334 17.2684 29.8334 19.3901V28.7235H24.5V19.3901C24.5 18.6829 24.2191 18.0046 23.719 17.5045C23.2189 17.0044 22.5406 16.7235 21.8334 16.7235C21.1261 16.7235 20.4478 17.0044 19.9477 17.5045C19.4476 18.0046 19.1667 18.6829 19.1667 19.3901V28.7235H13.8334V19.3901C13.8334 17.2684 14.6762 15.2336 16.1765 13.7333C17.6768 12.233 19.7116 11.3901 21.8334 11.3901Z" stroke="white" stroke-width="3" stroke-linecap="round" stroke-linejoin="round"/>
<path d="M8.50002 12.7235H3.16669V28.7235H8.50002V12.7235Z" stroke="white" stroke-width="3" stroke-linecap="round" stroke-linejoin="round"/>
<path d="M5.83335 8.72347C7.30611 8.72347 8.50002 7.52956 8.50002 6.0568C8.50002 4.58404 7.30611 3.39014 5.83335 3.39014C4.36059 3.39014 3.16669 4.58404 3.16669 6.0568C3.16669 7.52956 4.36059 8.72347 5.83335 8.72347Z" stroke="white" stroke-width="3" stroke-linecap="round" stroke-linejoin="round"/>
</svg>
