<svg width="33" height="33" viewBox="0 0 33 33" fill="none" xmlns="http://www.w3.org/2000/svg">
<path d="M23.8334 9.39014H23.8467M9.83335 3.39014H23.1667C26.8486 3.39014 29.8334 6.37491 29.8334 10.0568V23.3901C29.8334 27.072 26.8486 30.0568 23.1667 30.0568H9.83335C6.15146 30.0568 3.16669 27.072 3.16669 23.3901V10.0568C3.16669 6.37491 6.15146 3.39014 9.83335 3.39014ZM21.8334 15.8835C21.9979 16.9931 21.8084 18.1264 21.2917 19.1222C20.775 20.1179 19.9575 20.9254 18.9555 21.4297C17.9535 21.934 16.818 22.1096 15.7104 21.9314C14.6029 21.7532 13.5797 21.2302 12.7865 20.437C11.9932 19.6438 11.4703 18.6206 11.2921 17.5131C11.1139 16.4055 11.2894 15.27 11.7938 14.268C12.2981 13.2659 13.1056 12.4485 14.1013 11.9318C15.0971 11.4151 16.2304 11.2256 17.34 11.3901C18.4719 11.558 19.5198 12.0854 20.3289 12.8945C21.1381 13.7037 21.6655 14.7516 21.8334 15.8835Z" stroke="white" stroke-width="3" stroke-linecap="round" stroke-linejoin="round"/>
</svg>
