<svg width="120" height="44" viewBox="0 0 120 44" fill="none" xmlns="http://www.w3.org/2000/svg">
<g clip-path="url(#clip0_286_1037)">
<path d="M18.3219 3.37629C18.7565 3.37629 18.9871 3.61028 18.9871 4.04151V29.3599C18.9871 29.7945 18.7531 30.0251 18.3219 30.0251H15.2231C14.7886 30.0251 14.5579 29.7911 14.5579 29.3599V14.3708H14.3239L11.0246 29.4268C10.9243 29.8279 10.6903 30.0251 10.2925 30.0251H8.66121C8.26007 30.0251 8.02942 29.8246 7.92913 29.4268L4.62978 14.3708H4.39579V29.3599C4.39579 29.7945 4.16179 30.0251 3.73057 30.0251H0.665218C0.230654 30.0251 0 29.7911 0 29.3599V4.04151C0 3.60694 0.233996 3.37629 0.665218 3.37629H5.06101C5.46214 3.37629 5.6928 3.57686 5.79308 3.97465L9.49022 20.565L13.1874 3.97465C13.2876 3.57351 13.5216 3.37629 13.9194 3.37629H18.3152H18.3219Z" fill="#705AF8"/>
<path d="M34.1802 30.0251C33.8793 30.0251 33.7122 29.858 33.6487 29.5605L32.716 24.6967H26.7859L25.8867 29.5605C25.8198 29.8613 25.6527 30.0251 25.3552 30.0251H21.7917C21.424 30.0251 21.2602 29.8246 21.3572 29.4602L26.8862 3.84094C26.953 3.50666 27.1536 3.37629 27.4511 3.37629H32.0809C32.3817 3.37629 32.579 3.51 32.6458 3.84094L38.1748 29.4568C38.2417 29.8246 38.108 30.0218 37.7068 30.0218H34.1768L34.1802 30.0251ZM29.751 9.20614L27.6183 20.8324H31.8837L29.751 9.20614Z" fill="#705AF8"/>
<path d="M40.5114 8.17321C40.5114 5.041 42.1762 3.37629 45.3084 3.37629H49.7042C52.8029 3.37629 54.5011 5.041 54.5011 8.17321V11.6364C54.5011 11.9706 54.3005 12.1679 53.9696 12.1679H50.6368C50.2691 12.1679 50.1053 11.9673 50.1053 11.6364V9.10585C50.1053 8.24007 49.6373 7.77208 48.7715 7.77208H46.3714C45.4722 7.77208 45.0376 8.24007 45.0376 9.10585V24.2956C45.0376 25.1948 45.5056 25.6293 46.3714 25.6293H48.7715C49.6373 25.6293 50.1053 25.1948 50.1053 24.2956V19.8329H48.3737C48.006 19.8329 47.8422 19.6323 47.8422 19.3014V15.9686C47.8422 15.6009 48.0094 15.4371 48.3737 15.4371H53.9696C54.3039 15.4371 54.5011 15.6043 54.5011 15.9686V25.2282C54.5011 28.3604 52.8029 30.0251 49.7042 30.0251H45.3084C42.1762 30.0251 40.5114 28.3604 40.5114 25.2282V8.17321Z" fill="#705AF8"/>
<path d="M88.6846 7.24057C88.6846 7.57485 88.5509 7.8055 88.1531 7.8055H79.8262V14.4677H86.1909C86.5252 14.4677 86.7224 14.6683 86.7224 15.0326V18.332C86.7224 18.6997 86.5218 18.8969 86.1909 18.8969H79.8262V25.626H88.1531C88.5542 25.626 88.6846 25.7931 88.6846 26.1575V29.4869C88.6846 29.8212 88.5509 30.0184 88.1531 30.0184H75.895C75.5942 30.0184 75.3936 29.8179 75.3936 29.4869V3.90779C75.3936 3.57351 75.5942 3.37629 75.895 3.37629H88.1531C88.5542 3.37629 88.6846 3.57686 88.6846 3.90779V7.24057Z" fill="#705AF8"/>
<path d="M104.142 3.37629C104.509 3.37629 104.673 3.57686 104.673 3.90779V7.24057C104.673 7.57485 104.506 7.77208 104.142 7.77208H100.277V29.4903C100.277 29.858 100.11 30.0218 99.7459 30.0218H96.2828C95.9485 30.0218 95.7513 29.8546 95.7513 29.4903V7.77208H91.887C91.5527 7.77208 91.3555 7.57151 91.3555 7.24057V3.90779C91.3555 3.57351 91.5561 3.37629 91.887 3.37629H104.145H104.142Z" fill="#705AF8"/>
<path d="M106.676 8.17321C106.676 5.041 108.34 3.37629 111.472 3.37629H115.203C118.335 3.37629 120 5.041 120 8.17321V25.2282C120 28.3604 118.335 30.0251 115.203 30.0251H111.472C108.34 30.0251 106.676 28.3604 106.676 25.2282V8.17321ZM114.371 25.7296C115.236 25.7296 115.704 25.2984 115.704 24.3958V9.00557C115.704 8.13978 115.236 7.67179 114.371 7.67179H112.439C111.573 7.67179 111.105 8.13644 111.105 9.00557V24.3958C111.105 25.2951 111.569 25.7296 112.439 25.7296H114.371Z" fill="#705AF8"/>
<path d="M0 43.1557V36.7141H3.3896C4.61641 36.7141 5.24486 37.4963 5.24486 38.3554C5.24486 39.1677 4.74344 39.7092 4.13505 39.8329C4.82032 39.9399 5.37189 40.6051 5.37189 41.4174C5.37189 42.3835 4.72338 43.1557 3.49657 43.1557H0ZM3.84423 38.5961C3.84423 38.1916 3.5534 37.8907 3.09209 37.8907H1.37389V39.2914H3.09209C3.55674 39.2914 3.84423 39.0006 3.84423 38.5961ZM3.97125 41.2235C3.97125 40.819 3.68043 40.4714 3.13889 40.4714H1.37055V41.969H3.13889C3.66037 41.969 3.97125 41.6882 3.97125 41.2269V41.2235Z" fill="#705AF8"/>
<path d="M8.63446 43.1557V40.5182L6.15076 36.7107H7.71519L9.31974 39.2981L10.9042 36.7107H12.4687L10.005 40.5182V43.1557H8.63446Z" fill="#705AF8"/>
<path d="M22.594 43.1557V38.6462L20.7789 43.1557H20.1805L18.3654 38.6462V43.1557H16.9948V36.7141H18.9169L20.4814 40.6084L22.0458 36.7141H23.9779V43.1557H22.5974H22.594Z" fill="#705AF8"/>
<path d="M30.4162 43.1557L30.0217 42.0626H27.2606L26.8561 43.1557H25.2917L27.7854 36.7141H29.5036L31.9873 43.1557H30.4229H30.4162ZM28.6378 38.0813L27.6316 40.8525H29.6406L28.6345 38.0813H28.6378Z" fill="#705AF8"/>
<path d="M32.9835 40.585V36.7107H34.3741V40.5349C34.3741 41.4341 34.8955 42.0525 35.8917 42.0525C36.8878 42.0525 37.3993 41.4341 37.3993 40.5349V36.7107H38.7999V40.575C38.7999 42.1796 37.8539 43.2693 35.8917 43.2693C33.9295 43.2693 32.9835 42.1695 32.9835 40.585Z" fill="#705AF8"/>
<path d="M44.4292 43.1557L43.1623 40.8658H42.1561V43.1557H40.7856V36.7141H43.8008C45.1446 36.7141 45.9636 37.5932 45.9636 38.79C45.9636 39.9867 45.2482 40.5382 44.5529 40.702L46.0003 43.1557H44.4259H44.4292ZM44.5663 38.7866C44.5663 38.2451 44.1518 37.9175 43.6002 37.9175H42.1594V39.6557H43.6002C44.1518 39.6557 44.5663 39.3281 44.5663 38.7866Z" fill="#705AF8"/>
<path d="M47.7252 43.1557V36.7141H49.0958V43.1557H47.7252Z" fill="#705AF8"/>
<path d="M50.7839 39.9365C50.7839 37.9576 52.2815 36.6038 54.2136 36.6038C55.6343 36.6038 56.4533 37.376 56.9079 38.1782L55.7279 38.7565C55.4571 38.2351 54.8788 37.8205 54.2103 37.8205C53.0403 37.8205 52.1912 38.7198 52.1912 39.9365C52.1912 41.1533 53.0403 42.0525 54.2103 42.0525C54.8755 42.0525 55.4571 41.6481 55.7279 41.1165L56.9079 41.6848C56.4433 42.4871 55.6343 43.2693 54.2136 43.2693C52.2815 43.2693 50.7839 41.9155 50.7839 39.9365Z" fill="#705AF8"/>
<path d="M58.4556 43.1557V36.7141H59.8262V43.1557H58.4556Z" fill="#705AF8"/>
<path d="M61.5176 39.9365C61.5176 37.9944 62.9383 36.6038 64.8805 36.6038C66.8227 36.6038 68.2534 37.9944 68.2534 39.9365C68.2534 41.8787 66.8327 43.2693 64.8805 43.2693C62.9283 43.2693 61.5176 41.8787 61.5176 39.9365ZM66.8394 39.9365C66.8394 38.7298 66.0672 37.8205 64.8772 37.8205C63.6871 37.8205 62.925 38.7298 62.925 39.9365C62.925 41.1433 63.6871 42.0525 64.8772 42.0525C66.0672 42.0525 66.8394 41.1366 66.8394 39.9365Z" fill="#705AF8"/>
<path d="M73.1339 43.1557V36.7141H76.5235C77.7503 36.7141 78.3787 37.4963 78.3787 38.3554C78.3787 39.1677 77.8773 39.7092 77.2689 39.8329C77.9542 39.9399 78.5058 40.6051 78.5058 41.4174C78.5058 42.3835 77.8573 43.1557 76.6305 43.1557H73.1339ZM76.9814 38.5961C76.9814 38.1916 76.6906 37.8907 76.2293 37.8907H74.5111V39.2914H76.2293C76.694 39.2914 76.9814 39.0006 76.9814 38.5961ZM77.1051 41.2235C77.1051 40.819 76.8143 40.4714 76.2761 40.4714H74.5078V41.969H76.2761C76.7976 41.969 77.1051 41.6882 77.1051 41.2269V41.2235Z" fill="#705AF8"/>
<path d="M84.7067 43.1557L84.3122 42.0626H81.5511L81.1466 43.1557H79.5821L82.0759 36.7141H83.7941L86.2778 43.1557H84.7133H84.7067ZM82.9283 38.0813L81.9221 40.8525H83.9311L82.925 38.0813H82.9283Z" fill="#705AF8"/>
<path d="M88.7448 43.1557V40.5182L86.2611 36.7107H87.8255L89.43 39.2981L91.0145 36.7107H92.579L90.1153 40.5182V43.1557H88.7448Z" fill="#705AF8"/>
<path d="M93.9027 40.585V36.7107H95.2933V40.5349C95.2933 41.4341 95.8148 42.0525 96.811 42.0525C97.8071 42.0525 98.3186 41.4341 98.3186 40.5349V36.7107H99.7192V40.575C99.7192 42.1796 98.7732 43.2693 96.811 43.2693C94.8487 43.2693 93.9027 42.1695 93.9027 40.585Z" fill="#705AF8"/>
<path d="M101.705 43.1557V36.7141H106.264V37.9208H103.075V39.2814H106.194V40.4881H103.075V41.9456H106.264V43.1523H101.705V43.1557Z" fill="#705AF8"/>
<path d="M108.063 43.1557V36.7141H109.433V41.9489H112.158V43.1557H108.063Z" fill="#705AF8"/>
<path d="M113.268 39.9365C113.268 37.9944 114.688 36.6038 116.63 36.6038C118.573 36.6038 120.003 37.9944 120.003 39.9365C120.003 41.8787 118.583 43.2693 116.63 43.2693C114.678 43.2693 113.268 41.8787 113.268 39.9365ZM118.589 39.9365C118.589 38.7298 117.817 37.8205 116.627 37.8205C115.437 37.8205 114.675 38.7298 114.675 39.9365C114.675 41.1433 115.437 42.0525 116.627 42.0525C117.817 42.0525 118.589 41.1366 118.589 39.9365Z" fill="#705AF8"/>
<path d="M62.6809 27.3007V5.72962C62.6809 4.83041 63.1489 4.39584 64.0147 4.39584H65.7463C66.6121 4.39584 67.0801 4.83041 67.0801 5.72962V27.3007H71.6096V4.79698C71.6096 1.66477 69.9448 5.53131e-05 66.8126 5.53131e-05H63.0821C59.9499 5.53131e-05 58.2851 1.66477 58.2851 4.79698V27.3007H62.6809Z" fill="#705AF8"/>
<path d="M58.2851 28.9721V33.0336C58.2851 33.4014 58.586 33.6989 58.9504 33.6989H62.0157C62.3834 33.6989 62.6809 33.398 62.6809 33.0336V28.9721H58.2851Z" fill="#705AF8"/>
<path d="M67.0801 28.9721V33.0336C67.0801 33.4014 67.3809 33.6989 67.7453 33.6989H70.9443C71.312 33.6989 71.6096 33.398 71.6096 33.0336V28.9721H67.0801Z" fill="#705AF8"/>
</g>
<defs>
<clipPath id="clip0_286_1037">
<rect width="120" height="43.2693" fill="white"/>
</clipPath>
</defs>
</svg>
